<?xml version="1.0" encoding="UTF-8"?>
<svg width="752pt" height="752pt" version="1.1" viewBox="0 0 752 752" xmlns="http://www.w3.org/2000/svg">
 <g>
  <path d="m429.28 473.65s67.535 63.367 51.434 78.805c-16.102 15.438-66.773 33.152-99.453 33.152h-10.418c-32.773 0-83.445-17.855-99.453-33.152-16.008-15.297 51.336-78.805 51.336-78.805s-146.2-37.457-146.2-58.25c0-20.789 55.41-22.73 55.41-22.73 63.555-3.7891 139.94-1.7031 144.06-1.6094s80.508-2.1797 144.06 1.6094c0 0 55.41 1.9414 55.41 22.73 0 20.793-146.2 58.25-146.2 58.25zm33.672 81.031 11.082-6.8672c10.895-7.0547-51.43-68.008-51.43-68.008zm-283.72-149.04s142.74 42.387 191.33 42.387c48.586-0.003906 201.98-42.387 201.98-42.387"/>
  <path d="m381.16 586.84h-10.324c-31.637 0-83.254-17.238-100.35-33.531-1.9531-1.9062-2.9922-4.5664-2.8438-7.293 0-20.176 43.664-63.082 52.711-71.746-22.352-5.8242-145.01-38.504-145.01-58.867 0.039062-3.293 1.3477-6.4492 3.6484-8.8086l0.61328-2.1758 1.1367 0.33203c13.781-11.887 49.301-13.262 51.148-13.355 63.793-3.7891 140.89-1.7031 144.16-1.6094 3.2695 0.09375 80.273-2.1797 144.06 1.6094 1.8477 0 37.223 1.4688 51.051 13.309l1.043-0.28516 0.47266 1.6562h0.003907c2.543 2.4922 3.9766 5.9062 3.9766 9.4727 0 20.363-122.66 53.043-145.01 58.867 9.0469 8.668 52.664 51.574 52.711 71.746 0.14844 2.7266-0.88672 5.3828-2.8398 7.293-17.098 16.148-68.719 33.387-100.35 33.387zm-199.85-179.34c-2.2148 2.0391-3.4961 4.8984-3.5508 7.9062 0 16.293 104.85 46.742 145.25 57.066l2.082 0.56641-1.5625 1.4688c-0.51953 0.47266-53.469 50.484-53.516 71.512h0.003906c-0.14844 2.0781 0.61328 4.1172 2.082 5.5898 15.25 14.492 64.785 32.773 98.742 32.773h10.324c33.957 0 83.492-18.375 98.742-32.867 1.4531-1.4844 2.2109-3.5156 2.082-5.5898 0-21.027-52.992-71.039-53.516-71.512l-1.5625-1.4688 2.082-0.56641c40.395-10.324 145.25-40.773 145.25-57.066h0.003907c-0.046876-3.0586-1.3711-5.9609-3.6445-8.0039-18.941 5.2109-155.05 41.816-200.04 41.816-44.992 0-170.3-36.086-189.25-41.625zm2.1328-1.8477c23.156 6.7227 143.73 41.391 187.11 41.391 43.379 0 173.9-34.809 197.86-41.297-13.922-10.324-47.973-11.648-48.398-11.648-63.508-3.8867-140.75-1.9414-144.02-1.8477s-80.508-2.1797-144.02 1.6094c-0.42578 0.046875-34.664 1.375-48.539 11.793zm279.08 150.69-0.61719-1.0898-44.043-81.789 5.4961 5.4961c5.5391 5.4453 54.227 53.656 52.945 66.773v0.003906c-0.050782 1.2344-0.68359 2.375-1.7031 3.0781zm-34.996-69.992 35.898 66.633 9.9922-6.1562v-0.003907c0.38672-0.3125 0.61328-0.78125 0.61328-1.2773 0.90234-9.0469-29.359-41.676-46.504-59.195z"/>
  <path d="m426.63 222.32c0 30.879-24.863 33.957-52.664 33.957-27.801 0-48.117-3.0781-48.117-33.957 0-30.879 22.543-55.977 50.391-55.977 27.848 0 50.391 24.957 50.391 55.977zm-59.719-30.449-4.7344-1.7031-0.75781 3.5977zm25.621-7.1523 15.012 4.0742-9.4727-9.4727-22.07 5.3984zm-11.223 8.8555c-6.0156-5.2578-20.129 12.219-20.129 12.219zm6.8203-5.3984 5.0664 11.176 8.7148-5.1133zm-8.9961 18.941-9.1875 4.2617 9.4727 0.42578 7.8125-11.602zm14.492-1.1367h-0.007812c-1-0.027344-1.8438 0.75391-1.8945 1.7539 0 1.0469 0.85156 1.8945 1.8945 1.8945 1.0469 0 1.8945-0.84766 1.8945-1.8945 0.015625-0.50781-0.17969-0.99609-0.53906-1.3555-0.35938-0.35547-0.84766-0.55078-1.3555-0.53906zm-23.969-27.562c-0.84375 0.078125-1.5664 0.64453-1.832 1.4531-0.26953 0.80469-0.035157 1.6914 0.59766 2.2578 0.62891 0.56641 1.5391 0.70313 2.3086 0.35156 0.77344-0.35156 1.2617-1.1289 1.2461-1.9766-0.078124-1.2109-1.1094-2.1367-2.3203-2.0859z"/>
  <path d="m484.17 289c0 28.652-20.887 52.094-46.695 52.094s-46.695-23.207-46.695-51.855c0-28.652 20.934-52.094 46.789-52.094 25.859 0 46.602 23.25 46.602 51.855zm-48.969-30.828-3.457-1.2305-0.56641 2.6055zm18.375-5.3047 10.797 2.9375-6.9609-6.7266-15.723 3.7891zm-8.0508 6.3477c-4.3086-3.7422-14.445 8.7617-14.445 8.7617zm4.7344-3.8828 3.6484 8.0508 6.2969-3.6953zm-6.4414 13.496-6.25 3.2656 6.6289 0.33203 5.6367-8.3828zm10.418-0.80469 0.003906-0.003906c-0.375-0.070313-0.76562 0.027343-1.0586 0.26953-0.29688 0.24219-0.46484 0.60547-0.46484 0.98828 0 0.37891 0.16797 0.74219 0.46484 0.98438 0.29297 0.24609 0.68359 0.34375 1.0586 0.26953 0.375 0.074219 0.76172-0.023437 1.0547-0.26953 0.29688-0.24219 0.46875-0.60547 0.46875-0.98438 0-0.38281-0.17188-0.74609-0.46875-0.98828-0.29297-0.24219-0.67969-0.33984-1.0547-0.26953zm-17.238-19.699 0.003906-0.003906c-0.83984 0-1.5156 0.67969-1.5156 1.5156 0 0.83594 0.67578 1.5156 1.5156 1.5156 0.83594 0 1.5156-0.67969 1.5156-1.5156 0-0.83594-0.67969-1.5156-1.5156-1.5156z"/>
  <path d="m523.47 355.92c0 28.035-20.457 44.801-45.699 44.801-25.242 0-45.699-16.766-45.699-44.801s20.457-50.719 45.699-50.719c25.242-0.003906 45.699 22.73 45.699 50.719zm-53.562-28.414-3.8828-1.4219-0.61719 2.9844zm20.98-5.8711 12.219 3.3633-7.9102-7.625-17.902 4.2617zm-9.4727 7.2461c-4.7344-4.2617-16.387 9.9922-16.387 9.9922zm5.5898-4.4062 4.1211 9.1406 7.1523-4.2148zm-7.3398 15.344-7.4844 3.5039 7.5781 0.37891 6.3477-9.4727zm11.84-0.89844c-0.41406-0.078125-0.84375 0.03125-1.168 0.30469-0.32422 0.26953-0.51172 0.66797-0.51172 1.0898s0.1875 0.82422 0.51172 1.0938c0.32422 0.26953 0.75391 0.37891 1.168 0.30469 0.41406 0.074218 0.84375-0.035156 1.168-0.30469 0.32422-0.26953 0.51172-0.67188 0.51172-1.0938s-0.1875-0.82031-0.51172-1.0898c-0.32422-0.27344-0.75391-0.38281-1.168-0.30469zm-19.559-22.398v-0.003907c-0.66797 0.074219-1.2305 0.53516-1.4336 1.1719-0.20703 0.64062-0.015625 1.3398 0.48047 1.7891 0.5 0.44922 1.2188 0.5625 1.832 0.29297 0.61328-0.26953 1.0117-0.87891 1.0156-1.5508-0.089844-0.86719-0.78906-1.543-1.6562-1.6094z"/>
  <path d="m464.66 383.39c0 30.262-20.789 42.953-48.07 42.953-27.277 0-50.719-12.457-50.719-42.953 0-30.5 22.117-54.746 49.395-54.746 27.277 0 49.395 24.438 49.395 54.746zm-50.77-25.102-2.9805-1.2305-0.47266 2.2734zm16.008-4.5 9.4727 2.5586-6.0625-5.8242-13.688 3.2695zm-7.0078 5.5898c-3.7422-3.3164-12.551 7.5781-12.551 7.5781zm4.2617-3.4102 3.1719 7.0078 5.4453-3.2188zm-5.6367 11.746-5.7305 2.6992h5.7773l4.7344-7.2461zm9.0469-0.71094c-0.60938 0-1.1133 0.48047-1.1367 1.0898 0 0.29688 0.12109 0.58203 0.33594 0.78516 0.21484 0.20703 0.50391 0.31641 0.80078 0.30469 0.30078 0.011718 0.59375-0.097656 0.81641-0.30078 0.22266-0.20312 0.35547-0.48828 0.36719-0.78906-0.011719-0.30078-0.14453-0.58594-0.36719-0.79297-0.22266-0.20312-0.51562-0.30859-0.81641-0.29688zm-14.965-17.145c-0.75 0-1.3711 0.57812-1.4219 1.3281 0.12891 0.69531 0.73438 1.2031 1.4453 1.2031 0.70703 0 1.3164-0.50781 1.4453-1.2031-0.050781-0.76953-0.70312-1.3555-1.4688-1.3281z"/>
  <path d="m385.14 391.77c0 30.309-22.117 42.953-49.395 42.953s-49.395-12.645-49.395-42.953c0-30.312 22.117-54.844 49.395-54.844s49.395 24.582 49.395 54.844zm-55.691-28.984-4.7344-1.7031-0.80469 3.6484zm14.207 1.7539c-5.8242-5.2578-19.75 12.168-19.75 12.168zm6.8203-5.3984 5.0664 11.176 8.7617-5.1602zm-8.9961 18.941-9.1406 4.3086 9.2344 0.42578 7.8125-11.648zm14.539-1.0898h-0.003906c-0.47656-0.027344-0.94531 0.14062-1.3008 0.46094-0.35547 0.31641-0.57031 0.76562-0.59375 1.2422 0.050781 1.0039 0.89453 1.7812 1.8945 1.7539 0.47656 0.011719 0.94141-0.16406 1.2891-0.49219 0.34375-0.32813 0.54687-0.78125 0.55859-1.2617 0.039063-0.48047-0.12109-0.95312-0.44531-1.3125-0.32031-0.35938-0.77734-0.57031-1.2578-0.58203zm-23.965-27.422c-0.61328-0.089844-1.2383 0.089843-1.707 0.49219-0.47266 0.40625-0.74219 0.99609-0.74219 1.6172s0.26953 1.2109 0.74219 1.6133c0.46875 0.40625 1.0938 0.58594 1.707 0.49219 0.61328 0.09375 1.2344-0.085937 1.707-0.49219 0.46875-0.40234 0.73828-0.99219 0.73828-1.6133s-0.26953-1.2109-0.73828-1.6172c-0.47266-0.40234-1.0938-0.58203-1.707-0.49219z"/>
  <path d="m365.87 298.43c0 30.453-22.258 55.172-49.727 55.172s-49.68-24.723-49.68-55.172c0-30.453 22.258-55.031 49.68-55.031s49.727 24.531 49.727 55.031zm-60.289-38.93-2.9844-1.043-0.51953 2.2266zm16.008-4.4531 9.4727 2.5586-6.0156-5.8242-13.688 3.2695zm-7.1484 5.543c-3.7422-3.2695-12.551 7.625-12.551 7.625zm4.2617-3.3633 3.1719 6.9609 5.4453-3.2188zm-5.5898 11.699-5.6836 2.8867 5.8242 0.28516 4.7344-7.293zm9.0469-0.66406c-0.42969 0.039062-0.79688 0.32422-0.9375 0.73438-0.14062 0.40625-0.023438 0.85938 0.29297 1.1523 0.32031 0.29297 0.77734 0.37109 1.1758 0.19531 0.39453-0.17188 0.64844-0.5625 0.65234-0.99219-0.023438-0.59375-0.5-1.0664-1.0898-1.0898zm-14.965-17.145c-0.375-0.023438-0.74219 0.10156-1.0156 0.35156-0.27734 0.25-0.44141 0.60156-0.45312 0.97656 0.050782 0.76563 0.69922 1.3516 1.4688 1.3242 0.36328 0.011719 0.71875-0.12109 0.98438-0.36719 0.26562-0.25 0.42188-0.59375 0.43359-0.95703 0-0.73437-0.59375-1.3281-1.3242-1.3281z"/>
  <path d="m332.34 361.79c0 28.414-20.602 51.098-45.984 51.098-25.383 0.003906-46.031-22.684-46.031-51.098 0-28.414 20.602-51.098 46.031-51.098 25.434 0 45.984 23.062 45.984 51.098zm-49.016-29.738-3.5039-1.2773-0.56641 2.6523zm18.941-5.2578 10.988 2.9844-7.1055-6.8203-16.055 3.8359zm-8.3789 6.582c-4.4062-3.8828-14.777 8.9492-14.777 8.9492zm4.9727-3.9766 3.7422 8.1914 6.3945-3.7891zm-6.582 13.781-6.7266 3.125 6.7734 0.33203 5.7773-8.5273zm10.656-0.80469c-0.51172 0.035156-0.95313 0.375-1.1172 0.86328-0.16406 0.48437-0.023438 1.0195 0.35547 1.3633 0.38281 0.33984 0.93359 0.42188 1.3984 0.20703 0.46094-0.21875 0.75391-0.69141 0.73438-1.2031-0.011719-0.35156-0.16406-0.68359-0.42188-0.92578-0.25781-0.23828-0.59766-0.36719-0.94922-0.35547zm-17.57-20.129c-0.42969-0.027344-0.84766 0.12109-1.168 0.40234-0.32031 0.28516-0.51562 0.6875-0.53906 1.1133 0.14062 0.82031 0.85156 1.4219 1.6836 1.4219 0.83203 0 1.543-0.60156 1.6797-1.4219-0.011719-0.42578-0.19531-0.83203-0.50391-1.125-0.3125-0.29297-0.72656-0.44922-1.1523-0.4375z"/>
  <path d="m421.94 306.39c0 31.16-22.496 47.027-50.531 47.027-28.035-0.003906-50.957-15.867-50.957-47.027 0-31.164 22.688-56.359 50.816-56.359s50.672 25.242 50.672 56.359zm-59.574-31.969-4.7344-1.7031-0.57031 3.8359zm25.621-7.3398 15.012 4.0742-9.4727-9.4727-22.258 5.3984zm-11.223 8.8555c-6.0156-5.2109-20.129 12.219-20.129 12.219zm6.8203-5.3984 5.0664 11.176 8.7148-5.1133zm-8.9961 18.941-9.1875 4.3086 9.4727 0.37891 7.8125-11.602zm14.492-1.0898-0.007813 0.003906c-0.66406 0.074219-1.2266 0.53125-1.4336 1.1719-0.20312 0.64062-0.015625 1.3398 0.48438 1.7891 0.5 0.44922 1.2148 0.5625 1.8281 0.29297 0.61719-0.27344 1.0117-0.87891 1.0156-1.5508-0.074219-0.97656-0.91406-1.7109-1.8945-1.6562zm-23.965-27.469-0.003906 0.003906c-0.83984 0.074219-1.5586 0.63672-1.8281 1.4375-0.27344 0.80078-0.046875 1.6836 0.57422 2.2539 0.625 0.57031 1.5234 0.72266 2.2969 0.38281 0.77344-0.33594 1.2734-1.1016 1.2773-1.9453-0.078126-1.2109-1.1094-2.1367-2.3203-2.082z"/>
 </g>
</svg>
